# xmcd
#
# Track frame offsets:
#	150
#	15953
#	33187
#	51924
#	71911
#	88806
#	103587
#	118367
#	137354
#	153728
#	175308
#	191127
#	208410
#	228477
#	244275
#	260874
#	280816
#	299587
#	315781
#	335188
#
# Disc length: 4731 seconds
#
# Revision: 1
# Processed by: cddbd v1.4PL0 Copyright (c) Steve Scherf et al.
# Submitted via: audiograbber 1.81.03
#
DISCID=3c127914
DTITLE=Enrique - Escape and bonus
DYEAR=1900
DGENRE=
TTITLE0=Escape
TTITLE1=Don't turn off the lights
TTITLE2=Love to see you cry
TTITLE3=Hero
TTITLE4=I will survive
TTITLE5=Making love for fun
TTITLE6=Maybe
TTITLE7=One night stand
TTITLE8=She bet the one
TTITLE9=World crashes down
TTITLE10=Escapar
TTITLE11=No apaguez la luz
TTITLE12=Heroe
TTITLE13=Rhytm divine
TTITLE14=Be with you
TTITLE15=I have always loved you
TTITLE16=Sad eyes
TTITLE17=Bailamos
TTITLE18=You're my #1
TTITLE19=Could i have this kiss forever
EXTD=
EXTT0=
EXTT1=
EXTT2=
EXTT3=
EXTT4=
EXTT5=
EXTT6=
EXTT7=
EXTT8=
EXTT9=
EXTT10=
EXTT11=
EXTT12=
EXTT13=
EXTT14=
EXTT15=
EXTT16=
EXTT17=
EXTT18=
EXTT19=
PLAYORDER=
